<?xml version="1.0" standalone="yes"?>
<svg width="924" height="722">
<path style="fill:#000000; stroke:none;" d="M0 0L0 722L354 722L354 721C344.084 718.055 335.738 707.658 336.379 697C337.685 675.271 349.589 653.314 354 632C344.777 632 335.181 632.768 326 631.896C322.879 631.599 317.711 630.461 316.816 626.867C316.055 623.809 318.66 619.697 319.861 617C324.449 606.697 329.101 601.131 341 601.004C346.597 600.944 358.583 604.358 362.861 599.397C367.618 593.882 368.708 580.964 370.709 574C376.813 552.759 387.082 528.991 389 507L380 509L379 509C376.502 506.148 371.745 507.083 368.134 507.151C358.819 507.328 349.488 506.921 340.166 507.12C308.325 507.797 275.804 508.376 244 506.961C236.456 506.625 228.692 499.425 222 499.951C212.668 500.685 205.328 510.277 202 518C215.514 524.319 211.429 534.584 208.789 547C207.857 551.387 207.613 558.59 202.941 560.728C199.036 562.515 195.821 559.026 192 559.218C188.771 559.381 186.388 561.958 183 561.728C169.362 560.802 151.627 546.427 140 539.716C132.048 535.127 121.533 530.518 124 520C121.367 517.97 117.853 515.63 117.462 511.999C117.037 508.04 120.999 503.952 123.151 501C128.888 493.131 134.223 482.273 145 485C145.406 465.324 153.613 441.17 164.752 425C168.624 419.379 175.325 416.332 178.926 410.895C184.029 403.19 184.09 391.95 190.39 385.148C201.577 373.072 209 389.555 209 399C215.898 395.981 215 390.653 215 384L215 347L215 235C215 220.786 211.291 200.985 220.532 189.004C233.992 171.554 265.565 178 285 178L430 178L468 178C471.804 178 479.094 179.386 482.297 176.972C485.294 174.713 485.896 168.399 486.86 165C489.692 155.006 492.422 144.985 495.291 135L505 101C516.167 62.2525 525.483 5.41101 576 1C563.117 -4.40601 540.038 0 526 0L408 0L0 0z"/>
<path style="fill:#c897e4; stroke:none;" d="M483 178L565 178C563.688 159.745 565 140.232 565 121C565 116.692 561.018 105.083 563.427 102.323C566.178 99.1707 580.302 103 585 103C594.905 103 605.128 103.734 615 102.942C618.115 102.692 620.903 100.597 623.961 100.597C631.471 100.597 639.909 103 648 103C659.002 103 670.502 100.597 680.961 100.597C683.763 100.597 686.179 102.702 689.039 102.942C701.684 104.002 715.319 103.503 728 102.981C731.517 102.836 734.611 100.597 738 100.597C744.978 100.597 752.548 103 760 103C768.78 103 778.3 104.046 787 102.857C790.854 102.33 795.081 98.6618 798.435 102.323C802.314 106.556 798.094 112.168 798.005 117.001C797.727 132.075 800.5 149.3 797 164L801 165C801.83 170.412 798.506 173.002 798.059 178.039C797.098 188.851 798 200.144 798 211C798 215.613 796.975 221.433 798.023 225.91C798.619 228.453 801.349 230.255 801.099 233C800.866 235.555 798.562 237.488 798.147 240.09C796.229 252.115 798 265.816 798 278C798 284.174 800.454 291.185 799.977 297C798.569 314.161 797.26 331.477 798.019 348.996C798.196 353.076 801.787 356.145 801.554 360.015C801.109 367.405 796.18 375.936 799.603 383.674C802.611 390.472 818.195 392.753 817.914 401.015C817.165 423.108 799.439 438.561 784 454C778.122 459.878 770.773 471.213 762 465L761 465C758.446 467.492 755.043 471.743 751.04 471.454C746.674 471.139 744.428 465.23 742.579 462C737.561 453.234 728.966 442.769 737 434L737 433C728.293 423.666 721.176 423 709 423L709 468C709 477.995 709.474 487.81 702.671 495.996C690.382 510.782 667.152 506 650 506L513 506L513 554C513 557.932 515.538 567.396 513.223 570.486C509.64 575.269 496.307 574 491 574L433 574C427.504 574 415.535 575.394 411.643 570.566C408.913 567.18 411.993 558.244 412 554L412 506L390.563 507.028L382.579 531L363 602C418.892 602.154 475.178 600.441 531 602.896C544.364 603.484 566.787 597.15 578.895 604.024C586.229 608.187 592.741 624.193 595 632C574.365 634.608 552.801 633 532 633L422 633L377 633C370.667 633 362.239 631.534 356.144 633.318C350.817 634.877 349.63 647.341 348.291 652C343.538 668.541 329.298 696.133 340.638 711.999C348.139 722.493 358.43 722 370 722L415 722L632 722L823 722L867 722C876.238 722 884.697 722.681 891.907 715.815C902.939 705.309 899 685.853 899 672L899 560L899 150L899 48C899 35.0557 902.515 17.2795 892.815 7.09338C883.046 -3.16455 866.857 0 854 0L758 0L619 0C589.181 0 561.748 -2.29193 538.039 19.2894C521.651 34.2073 517.243 56.6163 511.576 77C502.23 110.614 490.796 143.995 483 178z"/>
<path style="fill:#000000; stroke:none;" d="M882 0L882 1C900.715 6.97577 899 25.1704 899 41L899 154L899 585L899 685C899 699.874 899.144 715.526 882 721L882 722L924 722L924 0L882 0z"/>
<path style="fill:#f1f1f1; stroke:none;" d="M565 172L571 167C562.186 148.289 569.624 125.229 565 105L619 105C623.427 121.427 622 138.782 622 156L623 156C626.192 145.201 624.004 131.245 624 120C623.999 116.677 622.401 110.323 624.117 107.434C627.039 102.515 642.051 105 647 105C654.272 105 668.228 102.319 674.62 105.988C679.873 109.003 679 115.909 679 121C679 132.541 676.725 146.92 680 158L681 158L681 118C680.991 112.146 678.991 106.163 685 103C681.997 98.3728 664.263 103 658 103C649.577 103 640.378 104.049 632.039 102.857C629.194 102.45 626.857 100.287 623.961 100.287C620.508 100.287 617.488 102.662 614 102.942C605.113 103.655 595.916 103 587 103C581.85 103 566.658 98.7056 563.333 101.604C559.741 104.736 563.414 108.642 564.441 112C566.265 117.968 565 125.8 565 132C565 140.876 566.506 151.302 564.701 160C563.753 164.572 560 168.755 565 172z"/>
<path style="fill:#faf8fb; stroke:none;" d="M686 103L686 104L728.957 105.147L737 109L742 103C738.457 97.5414 733.041 102.538 728 102.942C714.185 104.05 699.863 103 686 103z"/>
<path style="fill:#f4f4f4; stroke:none;" d="M743 103L743 104C752.963 106.945 765.631 105 776 105C780.017 105 785.997 103.901 789.387 106.514C793.325 109.549 792.998 114.565 793 119L793 150C793 154.319 794.045 160.319 790.682 163.682C785.593 168.772 770.716 166 764 166C757.171 166 743.097 168.777 738.988 161.62C736.794 157.798 738 151.259 738 147L738 111L736 111L736 150C736 154.683 737.145 161.187 732.852 164.397C725.741 169.712 705.706 166 697 166L697 167C705.868 169.621 726.796 163.223 733.08 170.318C740.417 178.602 736 202.456 736 213C736 217.074 737.034 222.935 734.682 226.517C732.255 230.212 727.903 229.986 724 230L724 231L738 236C739.702 229.104 748.306 231 754 231C764.267 231 775.826 229.502 785.957 231.148C790.304 231.855 792.308 235.638 797 236L797 235C795.292 232.02 796.917 231.132 800 231C793.571 217.463 795 204.211 795 189C795 183.149 793.682 176.523 798 172L795 171C796.348 168.591 797.364 167.236 799 170L800 170L795.147 158.957L795 109C799.891 108.184 802.015 101.51 795.941 100.376C792.062 99.6511 787.988 102.816 784 102.981C770.383 103.542 756.63 103 743 103z"/>
<path style="fill:#dadada; stroke:none;" d="M736 111L742 109L742 106L790 106L790 105L757 105C751.868 105 746.801 105.881 743 102C738.423 103.855 737.036 106.267 736 111z"/>
<path style="fill:#dcdcdc; stroke:none;" d="M680 109L733 106L697 105L684.109 103.577L680 109z"/>
<path style="fill:#dfdfdf; stroke:none;" d="M565 105L566 111C581.546 102.766 601.371 106 619 106L602 105L565 105z"/>
<path style="fill:#dddddd; stroke:none;" d="M624 155L625 155L624 110C639.234 102.824 659.114 106 676 106C665.496 101.592 647.42 105 636 105C632.768 105 625.311 103.703 623.643 107.434C622.162 110.744 623.999 117.32 624 121L624 155z"/>
<path style="fill:#beafc7; stroke:none;" d="M571 106L571 107L619 107C606.586 101.791 584.526 106 571 106z"/>
<path style="fill:#beafc6; stroke:none;" d="M628 106L628 107L676 107C663.586 101.791 641.526 106 628 106M685 106L685 107L733 107C720.586 101.791 698.526 106 685 106z"/>
<path style="fill:#bdaec5; stroke:none;" d="M742 106L742 107L790 107C777.586 101.791 755.526 106 742 106z"/>
<path style="fill:#9671ab; stroke:none;" d="M800 106L795 109C800.888 124.366 797 146.609 797 163L798 163L798 120L800 106z"/>
<path style="fill:#9d77b3; stroke:none;" d="M567 110L569 128L569 163L570 163L570 125L572.318 110.318L586 108L619 108C614.531 106.125 608.809 107 604 107C592.428 107 577.352 104.305 567 110z"/>
<path style="fill:#9b75b1; stroke:none;" d="M624 110C629.242 122.37 626 140.677 626 154L627 154L627 123L629.318 110.318L643 108L676 108C671.531 106.125 665.809 107 661 107C649.428 107 634.352 104.305 624 110z"/>
<path style="fill:#c897e4; stroke:none;" d="M627 153C633.774 150.179 640.582 144.173 648 143.419C658.538 142.348 669.774 153.024 679 157C679 143.019 683.496 119.484 677 107L643 108L629.318 109.603L627 122L627 153z"/>
<path style="fill:#9a74b0; stroke:none;" d="M680 109L680 110C683.959 114.194 683 119.537 683 125L683 160L684 160L684 124L686.318 110.318L700 108L733 108L716 107L680 109z"/>
<path style="fill:#c897e4; stroke:none;" d="M734 107C723.585 109.48 711.669 108 701 108C696.949 108 690.772 106.882 687.148 109.028C683.361 111.27 684.002 116.239 684 120L684 149C684 152.482 683.11 157.529 685.603 160.363C692.388 168.073 703.976 166 713 166C718.794 166 732.687 168.652 735.397 161.941C738.589 154.036 736 140.495 736 132C736 124.1 737.729 114.167 734 107z"/>
<path style="fill:#9a75b0; stroke:none;" d="M739 110L740 163L741 163L741 125L743.318 110.318L757 108L790 108C785.785 106.231 780.535 107 776 107C765.225 107 748.107 103.666 739 110z"/>
<path style="fill:#c897e4; stroke:none;" d="M740 164C750.179 169.296 767.672 166 779 166C782.84 166 788.602 166.999 791.397 163.682C794.309 160.226 793 153.2 793 149C793 136.949 796.624 117.809 791 107L757 108L743.318 109.603L741 125L740 164M573.148 109.028C569.121 111.412 570 117.034 570 121L570 152C570 155.177 568.594 161.831 570.773 164.397C573.272 167.339 580.573 166 584 166C597.35 166 606.412 165.821 617.941 158.265C626.129 152.9 622 129.958 622 121C622 117.927 623.047 112.306 620.972 109.742C618.768 107.018 613.062 108 610 108C600.726 107.999 581.178 104.273 573.148 109.028z"/>
<path style="fill:#bfb6c5; stroke:none;" d="M738 109L739 163L740 163L740 109L738 109z"/>
<path style="fill:#e1e1e1; stroke:none;" d="M567 111L567 163L568 163L568 128L567 111z"/>
<path style="fill:#b7a4c2; stroke:none;" d="M568 111L568 163L569 163L569 128L568 111z"/>
<path style="fill:#dddddd; stroke:none;" d="M681 111L681 158L682 158C682 144.735 686.11 123.176 681 111z"/>
<path style="fill:#c4b9ca; stroke:none;" d="M682 111L682 159L683 159C683 145.474 687.209 123.414 682 111z"/>
<path style="fill:#dfdfdf; stroke:none;" d="M795 111L795 163L796 163L796 128L795 111z"/>
<path style="fill:#c6becb; stroke:none;" d="M796 111L796 163L797 163L797 128L796 111z"/>
<path style="fill:#bbacc4; stroke:none;" d="M625 112L625 154L626 154C626 142.043 629.611 122.988 625 112z"/>
<path style="fill:#dcdcdc; stroke:none;" d="M738 112L738 163L739 163C739 148.689 743.508 125.127 738 112z"/>
<path style="fill:#f091a5; stroke:none;" d="M734 191C730.318 180.664 711.104 174.73 702 169.576C690.402 163.008 678.771 156.472 667 150.22C661.351 147.219 655.69 143.128 649 143.184C642.784 143.236 637.242 147.38 632 150.231C621.299 156.05 610.639 161.925 600 167.86C591.936 172.359 569.504 180.027 566.176 188.976C564.577 193.275 571.09 196.538 574 198.266C584.933 204.757 596.003 211.042 607 217.424C617.726 223.65 632.527 236.655 645 237.895C656.674 239.056 666.451 231.126 676 225.4C695.185 213.895 715.652 203.801 734 191z"/>
<path style="fill:#9772ac; stroke:none;" d="M800 165C799.692 169.089 798.7 171.135 795 173L795 174L797 190L797 226L798 226C798 210.714 797.358 195.274 798.019 180.004C798.269 174.234 803.76 170.544 800 165z"/>
<path style="fill:#e7d7f1; stroke:none;" d="M564 173L565 174L570 172L568 168C579.325 168.894 592.09 170.976 603 167C594.162 163.291 568.008 163.11 564 173z"/>
<path style="fill:#cfcfcf; stroke:none;" d="M796 167L795 171L799 172L800 171L799 167L796 167z"/>
<path style="fill:#d0cbd2; stroke:none;" d="M568 168L570 172L571 172C577.065 167.405 590.55 170 598 170L568 168z"/>
<path style="fill:#d2cdd4; stroke:none;" d="M700 168L700 169L733 170L733 168L700 168z"/>
<path style="fill:#d1cdd4; stroke:none;" d="M738 171L790 170L790 168L752 168C747.259 168 740.854 166.598 738 171z"/>
<path style="fill:#9571aa; stroke:none;" d="M566 173L566 174L568 178L570 178C572.923 167.708 587.536 171 596 171C587.127 167.277 574.606 170.235 566 173z"/>
<path style="fill:#c897e4; stroke:none;" d="M703 170C711.199 176.864 734.932 181.87 733.876 195C733.126 204.325 720.742 208.246 714.019 212.619C710.848 214.682 707.4 218.425 710.029 222.39C713.69 227.913 729.599 233.226 734.682 227.106C737.063 224.24 736 218.451 736 215L736 184C736 180.149 737.109 173.609 733.427 171.028C727.408 166.808 710.277 170 703 170z"/>
<path style="fill:#9974ae; stroke:none;" d="M738 173L740 191L740 226L741 226L741 188C741 183.252 739.747 176.553 743.724 173.032C747.136 170.012 752.796 171 757 171L790 171C785.28 169.019 779.08 170 774 170C762.095 170 749.034 168.108 738 173z"/>
<path style="fill:#c897e4; stroke:none;" d="M791 170C776.85 173.369 758.684 166.381 745.305 171.564C740.489 173.43 741.002 178.759 741 183L741 215C741 218.272 739.41 225.771 742.407 227.972C746.666 231.1 757.89 229 763 229C769.839 229 784.897 231.833 790.682 227.972C794.437 225.466 793 217.854 793 214C793 201.469 796.842 181.227 791 170z"/>
<path style="fill:#bc8ed6; stroke:none;" d="M570 178C579.744 178 585.264 176.079 594 172C586.957 169.045 571.429 168.847 570 178z"/>
<path style="fill:#fcf9f5; stroke:none;" d="M565 174L565 179C479.664 179 394.382 178 309 178L251 178C239.548 178 228.275 178.117 220.532 188.015C209.684 201.882 215 229.355 215 246L215 395C235.669 385.418 230 363.153 230 344L230 239C230 227.843 226.239 208.291 233.419 199.015C239.965 190.559 249.472 192 259 192L317 192L565 192C567.907 185.784 573.332 183.312 579 180L579 179L567 179L567 174L565 174z"/>
<path style="fill:#d3b8e2; stroke:none;" d="M567 174L567 179L581 179L581 178L568 178L567 174z"/>
<path style="fill:#dddddd; stroke:none;" d="M738 174L738 226L739 226L739 191L738 174z"/>
<path style="fill:#beb5c4; stroke:none;" d="M739 174L739 226L740 226L740 191L739 174z"/>
<path style="fill:#dedede; stroke:none;" d="M795 174L795 226L796 226L796 191L795 174z"/>
<path style="fill:#c6bfca; stroke:none;" d="M796 174L796 226L797 226L797 191L796 174z"/>
<path style="fill:#dec0ee; stroke:none;" d="M483 178L483 179L565 179L540 178L483 178z"/>
<path style="fill:#954f5a; stroke:none;" d="M733 191L674.001 226.051L653 239L653 240L657 240L658 246C679.112 236.131 698.765 221.881 719 210.28C726.129 206.193 737.174 200.968 733 191z"/>
<path style="fill:#afd5f2; stroke:none;" d="M231 203L242 194.893L271 194L328 193C320.841 189.996 309.744 192 302 192C283.1 192 263.866 190.954 245 192.043C238.216 192.435 233.149 196.682 231 203z"/>
<path style="fill:#88c4ec; stroke:none;" d="M230 384C250.287 380.997 239.248 402.034 234 410L246 411L246 284L246 252C246 247.9 245.128 242.508 248.318 239.318C253.97 233.666 272.444 237 280 237L358 237C367.274 237 381.024 234.275 388.521 240.654C396.725 247.634 393 266.16 393 276L399 277C406.472 266.257 395.352 245.843 407.094 237.894C411.692 234.781 418.727 236 424 236L462 236L533 236C543.442 236 556.915 238.265 567 235.501C576.502 232.897 586.514 225.005 595 220L595 218C584.138 213.319 565.321 205.288 565 192C482.348 192 399.563 192.995 317 193C297.943 193.001 279.03 194 260 194C248.95 194 239.314 192.579 232.032 202.576C228.925 206.841 230 213 230 218L230 252L230 384z"/>
<path style="fill:#9a8ba7; stroke:none;" d="M565 192L565 199L566 199L565 192z"/>
<path style="fill:#cb6e7e; stroke:none;" d="M566 193C566.039 204.051 574.339 207.058 583 212.139C601.844 223.193 621.502 238.495 642 246L642 239L652 239L652 238C640.618 237.992 632.63 231.759 623 226.281C604.187 215.579 585.737 201.74 566 193z"/>
<path style="fill:#be5f70; stroke:none;" d="M715 202L715 203L722 200L715 202z"/>
<path style="fill:#c16373; stroke:none;" d="M686 219L686 220L710 207C702.855 205.811 691.984 215.337 686 219z"/>
<path style="fill:#7fd5c7; stroke:none;" d="M252.318 211.032C247.669 214.033 251.76 221.091 256.697 217.968C261.676 214.818 257.316 207.806 252.318 211.032z"/>
<path style="fill:#fbd88c; stroke:none;" d="M267.318 211.032C263.024 213.841 267.092 221.317 271.683 218.762C276.531 216.065 272.634 207.555 267.318 211.032z"/>
<path style="fill:#f18da1; stroke:none;" d="M283.317 211.043C278.182 214.29 283.675 221.671 288.397 217.971C292.468 214.781 287.861 208.17 283.317 211.043z"/>
<path style="fill:#c19d5c; stroke:none;" d="M274 212L274 217L275 217L274 212z"/>
<path style="fill:#906e83; stroke:none;" d="M290 212L290 217L291 217L290 212z"/>
<path style="fill:#6290aa; stroke:none;" d="M259 213C257.85 216.966 256.061 218.367 252 219L252 220C256.563 219.851 261.009 218.352 259 213z"/>
<path style="fill:#ded5d4; stroke:none;" d="M708 216L704 218L704 220L709 222L708 216z"/>
<path style="fill:#a57c91; stroke:none;" d="M283 219L283 220L288 220L283 219z"/>
<path style="fill:#d09842; stroke:none;" d="M699 221L706 234L703 233C697.756 243.052 685.606 249.743 676.039 255.039C672.347 257.083 669.308 260.331 664.961 260.87C658.759 261.639 649.47 260.733 646 255C633.288 252.974 615.361 239.04 606.228 230.33C602.842 227.101 601.836 223.049 598 220L597 220C593.965 222.615 590.46 225.502 591.938 229.985C593.384 234.374 598.486 236.835 602 239.363C611.251 246.022 623.258 256.156 635 257C638.214 266.357 652.855 267 661 267C677.673 267 685.859 262.104 699.999 253.938C705.684 250.654 712.488 248.08 716.467 242.485C719.338 238.448 718.501 233.267 721 229C714.192 225.377 707.019 218.61 699 221z"/>
<path style="fill:#f2b54f; stroke:none;" d="M643 297L643 290C665.994 289.937 691.847 266.83 711 255.203C716.664 251.765 729.05 247.141 731.914 240.897C734.924 234.331 723.556 230.469 719 230C715.555 252.797 683.393 267 662 267C652.852 267 640.08 265.974 635 257C623.176 255.315 611.463 245.45 602 238.637C598.717 236.273 593.974 233.982 592.427 229.985C590.86 225.938 594.205 223.259 597 221C592.422 219.745 587.878 223.514 584 225.719C575.842 230.357 557.882 239.12 567.742 251.471C572.883 257.911 583.994 262.196 591 266.4C607.552 276.331 624.887 290.369 643 297z"/>
<path style="fill:#c46475; stroke:none;" d="M679 223L679 224L686 221L679 223z"/>
<path style="fill:#9e742f; stroke:none;" d="M693 225C693.912 227.534 698.055 230.881 697.674 233.463C697.108 237.292 692.259 238.345 689.88 240.68C682.305 248.114 668.353 258.961 657.004 256.518C643.651 253.643 632.851 241.415 620 237L622 234L603 224C603.733 230.448 608.129 232.218 612.961 235.748C622.095 242.423 634.228 253.924 646 255C647.81 261.213 657.614 261.046 663 261C674.437 260.902 699.568 244.203 703 233L706 234C706.718 228.925 702.932 225.866 700 222L693 225z"/>
<path style="fill:#8b6428; stroke:none;" d="M620 235C622.75 239.482 627.322 240.684 631.576 243.35C641.568 249.614 655.489 260.641 667.999 256.009C676.765 252.764 684.118 245.497 691.298 240.066C693.864 238.125 697.909 237.028 697.995 233.113C698.054 230.376 694.608 227.916 693 226C678.213 230.351 664.903 248.055 649 247.917C638.339 247.824 630.376 236.873 620 235z"/>
<path style="fill:#dfc4ee; stroke:none;" d="M722 229L722 230L733 230L722 229z"/>
<path style="fill:#dec4ee; stroke:none;" d="M743 229L743 230L790 230C777.823 224.891 756.265 229 743 229z"/>
<path style="fill:#9672ab; stroke:none;" d="M800 229L795 236C800.104 252.357 797 272.921 797 290L798 290L798.005 244.001L800 229z"/>
<path style="fill:#dbdadb; stroke:none;" d="M796.563 231.16C794.489 232.469 796.409 235.951 798.397 234.188C799.936 232.822 798.538 229.915 796.563 231.16z"/>
<path style="fill:#cc6b7d; stroke:none;" d="M662 233L662 234L667 232L662 233z"/>
<path style="fill:#e2e2e2; stroke:none;" d="M737 235L749.001 233.005L790 233L790 231L751 231C745.705 231 739.876 229.784 737 235z"/>
<path style="fill:#c897e4; stroke:none;" d="M728 233L728 234C748.119 248.647 715.71 256.287 710.028 265.379C706.227 271.46 709 285.923 709 293C715.388 293 727.252 295.288 732.852 291.972C737.474 289.235 736 281.508 736 277C736 267.032 731.942 244.996 738 237L728 233z"/>
<path style="fill:#9974ae; stroke:none;" d="M738 236C744.256 250.764 740 274.048 740 290L741 290L741 251C741 246.252 739.747 239.553 743.724 236.032C747.136 233.012 752.796 234 757 234L790 234C785.28 232.019 779.08 233 774 233C761.925 233 749.167 231.26 738 236z"/>
<path style="fill:#c897e4; stroke:none;" d="M795 237L795 236L791 233C780.288 235.55 767.976 234 757 234C752.813 234 746.298 232.766 743.032 236.032C740.089 238.976 741 244.225 741 248L741 279C741 282.503 739.869 288.663 742.603 291.397C747.009 295.803 763.068 293 769 293C774.565 293 787.44 295.379 791.397 290.682C794.171 287.39 793 280.993 793 277C793 267.032 788.942 244.996 795 237z"/>
<path style="fill:#c96a7b; stroke:none;" d="M658 235L658 236L662 235L658 235z"/>
<path style="fill:#bfdaec; stroke:none;" d="M408 236L408 237L567 237C554.593 231.794 532.515 236 519 236L408 236z"/>
<path style="fill:#ac5c69; stroke:none;" d="M642 239C642.036 249.263 649.573 249.556 658 246L657 240L653 240L653 239L658 236L642 239z"/>
<path style="fill:#639ed3; stroke:none;" d="M246 411L247 411L247 284L247 253C247 248.496 246.428 243.619 250.148 240.318C256.953 234.28 277.264 238 286 238L385 238C376.404 234.393 362.322 237 353 237L279 237C272.159 237 250.945 233.532 247.028 240.148C244.882 243.772 246 249.949 246 254L246 288L246 411z"/>
<path style="fill:#fbf8f3; stroke:none;" d="M652 393C646.876 392.209 644.038 387.521 638.961 387.059C623.905 385.689 608.123 387.001 593 387C585.487 387 577.38 386.753 573.573 378.985C567.876 367.364 572 345.802 572 333C572 328.005 573.627 319.321 569.427 315.603C564.114 310.9 546.85 314 540 314L456 314C452.248 314 447.828 313.374 444.17 314.313C439.516 315.508 436.219 320.378 431.044 317.218C425.163 313.627 425.532 304.488 433.004 302.971C437.13 302.133 440.221 306.755 444 307.683C450.689 309.324 459.128 308 466 308L532 308C542.055 308 554.206 306.153 564 308.533C584.083 313.415 577 348.642 577 364C577 368.288 575.761 375.023 578.028 378.852C580.864 383.641 589.329 382 594 382L630 382C636.115 382 642.367 382.709 646.467 377.149C648.84 373.93 644.971 370.594 645.448 366.996C647.057 354.836 648 343.529 648 331C641.57 333.843 635.938 326.586 630.804 322.353C620.69 314.011 606.054 304.459 594 299L595 297C584.057 288.595 593.653 278.082 589.941 268.001C584.565 253.406 561.137 257.427 566 237L450 237L419 237C415.146 237 409.67 236.075 406.228 238.179C401.837 240.864 403 247.648 403 252L403 290L403 423L403 457C403 460.993 401.829 467.39 404.603 470.682C407.925 474.624 416.418 473 421 473L465 473L620 473L659 473C663.404 473 671.068 474.442 674.682 471.397C677.999 468.602 677 462.839 677 459L677 429C677 425.604 678.133 419.585 675.972 416.702C670.363 409.22 643.573 406.722 652 393z"/>
<path style="fill:#fafafa; stroke:none;" d="M736 237L736 277C736 281.683 737.145 288.187 732.852 291.397C727.576 295.341 715.334 293 709 293L709 294L733 294L737 299C740.42 292.219 748.429 294 755 294C767.378 294 788.366 298.018 799 291C791.862 283.439 796 261.09 796 251C796 246.259 797.402 239.854 793 237L793 275C793 279.425 794.212 286.086 791.397 289.852C788.187 294.145 781.683 293 777 293C763.384 293 751.074 293.245 738 290L738 237L736 237z"/>
<path style="fill:#dddddd; stroke:none;" d="M738 237L738 290L739 290L739 254L738 237z"/>
<path style="fill:#448aca; stroke:none;" d="M247 412C256.621 413.716 267.199 422.023 271 431C287.01 428.028 304.739 430 321 430C333.203 430 346.977 428.216 359 430.329C372.895 432.771 379.355 449.594 365.985 457.775C358.854 462.139 349.977 461 342 461L296 461C282.364 461 272.095 458.507 266 473L353 473C360.955 473 379.31 476.385 385.772 471.397C390.004 468.129 389 461.69 389 457L389 421L389 286L389 252C389 248.497 390.131 242.337 387.397 239.603C382.776 234.983 365.26 238 359 238L279 238C271.619 238 252.165 234.505 248.028 242.059C245.832 246.068 247 252.575 247 257L247 290L247 412z"/>
<path style="fill:#e8ca9e; stroke:none;" d="M565 238L565 249L566 249L565 238z"/>
<path style="fill:#a2766b; stroke:none;" d="M733 238L733 248L734 248L733 238z"/>
<path style="fill:#bfb6c5; stroke:none;" d="M739 238L739 290L740 290L740 255L739 238z"/>
<path style="fill:#c7c0cb; stroke:none;" d="M796 239L796 290L797 290C797 275.689 801.508 252.127 796 239z"/>
<path style="fill:#c49344; stroke:none;" d="M732 241C715.144 254.955 693.728 265.102 675 276.399C664.83 282.533 655.269 289.898 643 290L643 298C668.21 298 693.927 274.645 715 262C722.761 257.343 736.785 252.408 732 241z"/>
<path style="fill:#47769b; stroke:none;" d="M389 242L389 414L389 455C389 460.571 390.109 467.688 384.891 471.397C379.095 475.516 365.867 473 359 473L292 473C284.601 473 268.516 469.986 263 475L352 475C360.718 475 378.542 478.371 385.891 473.258C390.902 469.772 390 463.331 390 458L390 419L390 295L390 259C390 253.65 391.085 246.969 389 242z"/>
<path style="fill:#80b9e1; stroke:none;" d="M390 242L390 416L390 457C390 463.023 390.697 469.473 384.956 473.258C375.928 479.209 353.642 475 343 475L288 475C280.609 475 269.986 473.061 263 475.603C256.295 478.042 249.073 484.981 243 489L243 490L579 490L579 489L498 489L498 488C510.719 488 523.318 487.001 536 487C541.364 487 548.45 487.726 552 483L553 483L556 485L557 482L558 484L559 484C556.092 473.611 530.727 477.852 522.015 478.025C494.485 478.569 466.629 477 439 477C431.374 477 414.506 480.141 408.26 475.397C396.44 466.418 402 437.121 402 424L402 274L399 277L393 276C393 268.139 396.648 247.061 390 242z"/>
<path style="fill:#b1d2ea; stroke:none;" d="M402 242L402 468L403 468L403 309L403 263L402 242z"/>
<path style="fill:#fbce75; stroke:none;" d="M569 243L588 255.8L625 278.011L644 288L644 287L597 258.601L569 243z"/>
<path style="fill:#a0b1bf; stroke:none;" d="M427 252L427 253L447 253L427 252z"/>
<path style="fill:#4887bd; stroke:none;" d="M425.04 253.858C417.725 256.978 416.906 268.63 423.214 273.258C428.082 276.829 445.707 276.564 450.981 273.821C458.325 270.002 458.806 259.258 451.956 254.742C446.804 251.346 430.667 251.458 425.04 253.858z"/>
<path style="fill:#76c6b7; stroke:none;" d="M264 254L264 360L369 360L369 291L370 254L264 254z"/>
<path style="fill:#4e9184; stroke:none;" d="M370 254L370 360L371 360L371 286L370 254z"/>
<path style="fill:#74b2cc; stroke:none;" d="M263 255L263 361L264 361L264 287L263 255z"/>
<path style="fill:#60b1a2; stroke:none;" d="M369 255L369 360L291 360C284.714 360 268.25 357.136 264 362L301 361L370 361L370 287L369 255z"/>
<path style="fill:#3a709c; stroke:none;" d="M371 255L371 333C371 339.334 373.932 355.973 368.682 360.397C363.368 364.874 347.683 362 341 362L265 362L265 363L342 363C348.411 363 365.29 366.017 370.397 361.972C374.652 358.602 372 342.098 372 337L372 280C372 272.52 373.903 261.919 371 255z"/>
<path style="fill:#8bb5da; stroke:none;" d="M443 255L443 256L447 256L443 255z"/>
<path style="fill:#5fb1a1; stroke:none;" d="M265 256L265 357L266 357L266 257L366 257L335 256L265 256z"/>
<path style="fill:#eaeaea; stroke:none;" d="M441.109 257.028C431.788 262.257 440.756 276.164 449.786 270.821C458.944 265.403 450.077 251.996 441.109 257.028z"/>
<path style="fill:#4a867a; stroke:none;" d="M266 257L266 332C266 336.631 263.425 354.18 267.603 356.914C271.769 359.638 278.593 350.407 281 348C292.824 336.177 307.37 324.67 317 311C310.767 313.119 306.557 318.443 302 323C292.326 332.674 276.801 343.559 271 356C264.877 352.624 267 343.116 267 337L267 281C267 275.601 264.77 263.679 269.434 259.858C274.815 255.449 288.414 258 295 258C317.886 258 343.49 254.821 366 259L366 261L337 288L320 307C333.494 300.707 345.497 283.503 356 273C360.772 268.228 366.464 264.106 367 257L266 257z"/>
<path style="fill:#3a719c; stroke:none;" d="M271 258L271 259L364 259L335 258L271 258z"/>
<path style="fill:#74b2cb; stroke:none;" d="M367 258L367 321L366 355C370.451 351.111 368 337.681 368 332L368 281C368 274.049 369.701 264.436 367 258z"/>
<path style="fill:#5e9b98; stroke:none;" d="M268 259L281 275L314 307L298 289L268 259z"/>
<path style="fill:#448aca; stroke:none;" d="M272 259L317 305L318 305L363 259L272 259z"/>
<path style="fill:#3c708a; stroke:none;" d="M267 261L267 355L268 355L268 290L267 261z"/>
<path style="fill:#acc1d3; stroke:none;" d="M418 261L418 266L419 266L418 261z"/>
<path style="fill:#448aca; stroke:none;" d="M268 262L268 354L302 321L312.793 308L302 295L268 262M366 262L333 295L322.207 308L333 321L367 354L367 290L366 262z"/>
<path style="fill:#386893; stroke:none;" d="M436 265C436.872 272.824 441.883 274.689 449 273L449 272C442.726 271.848 440.086 269.471 436 265z"/>
<path style="fill:#e1dfda; stroke:none;" d="M589 265C591.242 274.485 584.06 291.487 595 297L594 299L642 331C649.128 323.922 654.43 324.2 659 334L653 332L653 352L673 340C669.337 333.766 658.572 329.795 660.473 321C661.17 317.772 663.675 314.996 665 312L642.819 299.081L589 265z"/>
<path style="fill:#a998ad; stroke:none;" d="M707 266L708 293L709 293C709 286.68 711.874 270.259 707 266z"/>
<path style="fill:#e2e0dd; stroke:none;" d="M699 301L707 300L707 267C694.552 271.736 699 289.903 699 301z"/>
<path style="fill:#c2beba; stroke:none;" d="M707 267L707 300L708 300C709.032 291.259 710.407 275.118 707 267z"/>
<path style="fill:#b9b6b5; stroke:none;" d="M695 304C702.598 298.807 699 280.44 699 272C691.378 276.203 695 296.141 695 304z"/>
<path style="fill:#778088; stroke:none;" d="M693 274L694 304L695 304C695 297.233 698.174 278.522 693 274z"/>
<path style="fill:#adcae1; stroke:none;" d="M427 275L427 276L448 276L427 275z"/>
<path style="fill:#3d607f; stroke:none;" d="M692 275L692 307L693 307C693.932 298.518 695.295 282.853 692 275z"/>
<path style="fill:#2b4760; stroke:none;" d="M693 275L693 305L694 305L693 275z"/>
<path style="fill:#5982a3; stroke:none;" d="M691 276C687.589 278.088 682.254 280.082 680.028 283.529C677.838 286.919 679 293.139 679 297C679 309.475 677.292 318.467 692 321C692.008 308.198 695.978 287.862 691 276z"/>
<path style="fill:#c4c2be; stroke:none;" d="M620 284C622.975 290.229 629.049 292.149 634.83 295.205C644.327 300.226 657.024 306.996 665 314L677 315L677 285C667.154 289.248 657.609 299.677 646 297.775C636.744 296.258 628.618 287.607 620 284z"/>
<path style="fill:#a4a29f; stroke:none;" d="M677 284L677 315L678 315L677 284z"/>
<path style="fill:#5f6d78; stroke:none;" d="M678 284L678 316L679 316L678 284z"/>
<path style="fill:#eaeaea; stroke:none;" d="M739 328L738 299C750.772 295.829 762.695 296 776 296C780.094 296 787.114 294.67 790.427 297.603C793.768 300.561 793 306.016 793 310L793 341C793 345.1 793.872 350.492 790.682 353.682C785.817 358.547 772.403 356 766 356C770.962 363.654 784.345 354.981 790.682 361.318C796.275 366.911 789.217 377.603 796 382L795 363C803.974 359.701 796.291 353.266 796.019 346.996C795.347 331.476 798.609 314.159 795 299C798.882 297.822 799.699 295.952 800 292C785.92 293.402 772.296 294 758 294C752.936 294 743.7 292.24 739.279 295.028C733.524 298.656 733.77 324.609 739 328z"/>
<path style="fill:#dedede; stroke:none;" d="M709 294L709 296L733 296L733 294L709 294z"/>
<path style="fill:#a47cbb; stroke:none;" d="M708 296L708 301L709 301L709 298L733 298L733 296L708 296z"/>
<path style="fill:#a47cba; stroke:none;" d="M738 299L740 330L741 330C741 322.669 738.079 307.2 742.603 301.148C745.662 297.056 751.523 298 756 298L790 298L790 296C773.396 296 753.528 292.929 738 299z"/>
<path style="fill:#c897e4; stroke:none;" d="M790 296C782.741 301.499 763.997 298 755 298C751.439 298 746.262 297.123 743.318 299.603C739.67 302.677 741 309.776 741 314C741 329.661 745.617 332.38 755.572 344C758.697 347.648 762.194 354.357 767.09 355.682C772.595 357.171 789.889 358.151 792.397 351.941C795.688 343.792 793 329.762 793 321C793 313.406 795.241 302.076 790 296z"/>
<path style="fill:#9772ac; stroke:none;" d="M800 296C795.935 301.651 797 308.303 797 315L797 353L798 353L798 310L800 296z"/>
<path style="fill:#c897e4; stroke:none;" d="M709 298C710.653 309.404 725.33 324.202 736 327C736 321.225 738.998 302.681 734.397 298.773C730.234 295.238 714.498 298 709 298z"/>
<path style="fill:#c8c1cc; stroke:none;" d="M795 299L796 353L797 353L797 313L795 299z"/>
<path style="fill:#e3b28d; stroke:none;" d="M725 326L725 327L697 342C695.965 348.397 690.712 349.471 685.424 351.756C673.621 356.857 644.682 351.24 646 373C651.475 368.547 653.936 362.352 661.001 359.789C677.015 353.979 687.484 377.033 690 390L658 389L659 381L658 381C657.447 387.143 654.795 392.405 649 395L649 396C659.795 409.207 686.213 400.905 700.286 394.71C704.694 392.769 709.756 393.386 712.633 388.891C719.379 378.35 708.974 368.7 707.412 358.424C705.779 347.685 722.904 332.593 731 328L731 326C720.173 321.721 699.567 315.41 708 300C698.86 300.082 686.02 308.573 696.499 317.896C707.304 327.508 712.098 326.044 725 326z"/>
<path style="fill:#ba8b6a; stroke:none;" d="M728 325C723.856 318.374 718.54 312.134 713.626 306.044C712.242 304.329 709.922 301.06 707.279 302.256C703.104 304.145 706.119 310.471 707.714 312.985C712.285 320.188 720.13 322.895 728 325z"/>
<path style="fill:#b6cee2; stroke:none;" d="M432 302L432 303L436 303L432 302z"/>
<path style="fill:#beb4c3; stroke:none;" d="M739 302L739 329L740 329L739 302z"/>
<path style="fill:#448bca; stroke:none;" d="M426 313L432 314C429.369 306.518 434.992 306.97 440 310C440.364 298.518 426.531 303.307 426 313z"/>
<path style="fill:#a8c6e0; stroke:none;" d="M433 306L433 307L436 307L433 306z"/>
<path style="fill:#f7f7f7; stroke:none;" d="M431.622 308.032C428.378 310.68 433.419 315.281 436.378 312.382C439.545 309.28 434.559 305.635 431.622 308.032z"/>
<path style="fill:#3a78ae; stroke:none;" d="M440 307L438 309L429 315L428 312L427 312C430.357 323.571 441.777 316.218 442 307L440 307z"/>
<path style="fill:#b4ded4; stroke:none;" d="M442 308L442 309L565 309C555.211 304.892 538.634 308 528 308L442 308z"/>
<path style="fill:#5aa798; stroke:none;" d="M442 309C443.261 314.885 466.325 312 472 312C502.796 312 539.155 306.852 569 314L569 313C560.477 308.898 548.31 311 539 311L473 311C463.814 311 450.19 313.555 442 309z"/>
<path style="fill:#69c3b2; stroke:none;" d="M443 309L443 311L533 311C541.547 311 559.674 307.593 566.79 312.742C572.956 317.203 572 325.367 572 332C572 345.166 567.599 368.075 573.573 379.96C577.19 387.158 585.223 386 592 386L642 386L642 383L595 383C588.391 383 580.768 383.938 577.179 376.985C574.989 372.742 576 366.625 576 362L576 330C576 322.668 577.133 315.238 569.995 310.742C561.73 305.536 543.568 309 534 309L443 309z"/>
<path style="fill:#5a9f92; stroke:none;" d="M314 312C320.687 312.285 325.534 319.534 330 324C339.722 333.722 353.645 354.251 367 358C357.6 344.132 340.945 331.944 329 320C325.875 316.875 318.559 306.898 314 312z"/>
<path style="fill:#448aca; stroke:none;" d="M317 311L271 358L364 358C352.663 341.905 333.095 322.337 317 311z"/>
<path style="fill:#42688b; stroke:none;" d="M692 311L692 322L694 322L692 311z"/>
<path style="fill:#97b0a9; stroke:none;" d="M442 312L442 313L565 313C555.211 308.892 538.634 312 528 312L442 312z"/>
<path style="fill:#e1deda; stroke:none;" d="M438 318C451.382 311.696 467.175 314 482 314L567 314C558.882 310.593 545.797 313 537 313L468 313C458.906 313 443.663 309.629 438 318z"/>
<path style="fill:#edc29c; stroke:none;" d="M660 326L661 326C666.304 322.753 684.925 332.811 688 338L673 339L675 342L675 343C662.463 349.666 648.842 354.734 645 370L646 370C649.971 364.18 654.005 357.921 661 355.51C670.709 352.163 695.796 357.248 697 342L725 327L725 326C714.24 326.008 701.819 331.919 696 319L695 319L695 323C683.772 317.666 660.201 303.727 660 326z"/>
<path style="fill:#778189; stroke:none;" d="M694 315L693 323L694 315z"/>
<path style="fill:#a5b0b9; stroke:none;" d="M432 318L432 319L436 319L432 318z"/>
<path style="fill:#c3916f; stroke:none;" d="M695 318C697.874 324.794 701.802 327.026 709 328C705.938 322.861 700.812 319.334 695 318z"/>
<path style="fill:#d0cdc9; stroke:none;" d="M576 319L576 377L577 377L577 338L576 319z"/>
<path style="fill:#69c3b2; stroke:none;" d="M641 333L648 331L648 359L649 359C653.886 350.959 652 340.123 652 331L659 334C655.703 322.252 645.846 322.61 641 333z"/>
<path style="fill:#dea983; stroke:none;" d="M661 324C662.143 339.16 677.072 338.007 688 338C685.313 331.083 668.116 324.729 661 324z"/>
<path style="fill:#ca9a77; stroke:none;" d="M652 402L652 403C668.883 415.092 684.293 417.056 704 421.155C710.038 422.411 721.833 425.779 726 420L703 416L698 413C700.164 402.366 709.481 402.75 717.32 396.74C721.496 393.538 723.772 388.448 728.325 385.539C731.381 383.587 735.674 383.099 737.741 379.826C744.422 369.246 733.587 352.102 742 341C741.347 337.482 741.735 332.245 739.397 329.394C731.449 319.703 713.86 341.715 710.231 348.285C702.667 361.984 717.213 370.102 714.605 383.001C712.856 391.65 707.046 391.61 700.286 394.325C684.559 400.64 668.719 402.718 652 402z"/>
<path style="fill:#b28363; stroke:none;" d="M741 330L742 341C732.626 349.19 742.367 368.449 738.003 378.522C736.186 382.717 730.946 383.24 727.514 385.539C723.047 388.533 720.772 393.638 716.532 396.74C708.938 402.296 698.696 402.269 698 413L703 416L726 420L724 424L736 433C750.677 426.156 756.317 409.485 764.495 397C768.293 391.203 773.291 382.72 781 383C775.701 364.604 757.53 339.555 741 330z"/>
<path style="fill:#cdcbc6; stroke:none;" d="M652 331L652 353L653 353L652 331z"/>
<path style="fill:#f7d3ae; stroke:none;" d="M645 367L656.104 353.542L675 343C664.439 332.35 647.486 358.386 645 367z"/>
<path style="fill:#4083be; stroke:none;" d="M542 422L535 419C536.772 430.485 549.228 430.485 551 419L545 422L545 377C545 370.385 545.824 363.072 538.96 359.457C531.267 355.405 517.519 358 509 358L466 358C459.488 358 451.363 359.306 445.039 357.683C441.827 356.858 439.991 353.91 436.961 352.742C431.88 350.785 425.927 354.225 426.337 359.999C427.316 373.767 445.275 361.003 452 361L509 361C516.379 361 527.093 359.047 533.999 361.858C541.699 364.992 542 371.859 542 379L542 422z"/>
<path style="fill:#a980c1; stroke:none;" d="M800 355C799.689 359.102 798.6 360.981 795 363L798 384L799 384L800 355z"/>
<path style="fill:#b6cde1; stroke:none;" d="M442 357L442 358L534 358L506 357L442 357z"/>
<path style="fill:#cd9873; stroke:none;" d="M647 371L647 373C658.527 378.546 666.392 366.104 678 366C668.795 349.543 656.295 363.113 647 371z"/>
<path style="fill:#bbadc4; stroke:none;" d="M768 359L768 360L790 360L768 359z"/>
<path style="fill:#9c76b2; stroke:none;" d="M769 362L790 361C785.508 359.115 772.349 358.168 769 362z"/>
<path style="fill:#c897e4; stroke:none;" d="M770 361L782 385L793 380L791.397 361.773L770 361z"/>
<path style="fill:#4e8e82; stroke:none;" d="M265 361L265 362L369 362L337 361L265 361z"/>
<path style="fill:#7b95ab; stroke:none;" d="M442 361L442 362L535 362L506 361L442 361z"/>
<path style="fill:#dddbd6; stroke:none;" d="M438 367C449.48 361.592 461.275 363 474 363L536 363C529.564 360.299 519.951 362 513 362L461 362C453.009 362 442.997 359.614 438 367z"/>
<path style="fill:#c5beca; stroke:none;" d="M796 365L796 383L797 383L796 365z"/>
<path style="fill:#b9bdbf; stroke:none;" d="M545 366L545 422L546 422L546 384L545 366z"/>
<path style="fill:#d9d7d3; stroke:none;" d="M670 366L670 367L677 367L677 391L678 391L678 366L670 366z"/>
<path style="fill:#91a3b2; stroke:none;" d="M431 367L431 368L436 368L431 367z"/>
<path style="fill:#fbf8f3; stroke:none;" d="M652 375C655.219 380.573 659.24 381.887 658 389L677 391L677 367L652 375z"/>
<path style="fill:#7c909f; stroke:none;" d="M678 367L678 391L679 391L678 367z"/>
<path style="fill:#6199ca; stroke:none;" d="M541 368L541 422L542 422L542 386L541 368z"/>
<path style="fill:#77acd8; stroke:none;" d="M679 368L679 391L690 390C688.878 381.312 686.293 373.384 679 368z"/>
<path style="fill:#448bca; stroke:none;" d="M648 374C644.785 380.003 637.228 388.084 649 390C646.094 382.337 648.665 379.736 656 384C656.175 378.585 652.918 375.705 648 374z"/>
<path style="fill:#d5a353; stroke:none;" d="M781 419L789 416C792.632 409.721 797.613 410.872 804 411L779 442C791.537 439.9 795.119 420.834 807 418C810.565 413.305 818.081 407.307 818.377 401.015C818.714 393.878 802.298 386.027 797 382.812C794.762 381.453 791.85 379.228 789.054 379.828C785.621 380.565 783.454 385.231 781.83 387.961C776.037 397.7 776.685 408.834 781 419z"/>
<path style="fill:#5e9dd4; stroke:none;" d="M267 380L267 381L368 381L337 380L267 380z"/>
<path style="fill:#fcfcfc; stroke:none;" d="M648.564 381.171C646.573 382.471 648.241 386.261 650.436 384.829C652.427 383.529 650.759 379.739 648.564 381.171z"/>
<path style="fill:#72baed; stroke:none;" d="M265 381L265 386L344 386C350.636 386 367.604 389.362 369 381L265 381z"/>
<path style="fill:#d1d1d1; stroke:none;" d="M652 381C650.891 384.571 649.055 385.484 647 382L646 382C647.285 390.058 656.165 386.825 652 381z"/>
<path style="fill:#3a76ab; stroke:none;" d="M656 381L654 383C651.845 387.402 648.913 389.309 644 389C651.021 396.168 657.638 388.779 658 381L656 381z"/>
<path style="fill:#f6d2ac; stroke:none;" d="M169 426L240 411L240 410L212 413L240 386C223.302 377.089 209.209 405.287 195 410L205 382C201.079 382 195.65 381.062 192.105 383.028C184.284 387.364 183.521 402.71 178.926 409.957C174.798 416.466 167.595 416.866 169 426z"/>
<path style="fill:#a2d7cc; stroke:none;" d="M582 382L582 383L642 383L623 382L582 382z"/>
<path style="fill:#866048; stroke:none;" d="M757 411C764.48 407.008 770.585 398.312 776.165 392C777.697 390.268 782.488 386.326 780.248 383.647C777.684 380.579 773.309 385.136 771.616 386.874C765.218 393.444 759.45 402.115 757 411z"/>
<path style="fill:#daa07a; stroke:none;" d="M205 383L195 410C204.824 407.951 200.072 393.113 207 387L205 383z"/>
<path style="fill:#b4bec1; stroke:none;" d="M231 383L231 384L235 384L231 383z"/>
<path style="fill:#ecb252; stroke:none;" d="M784 383C770.827 396.174 758.037 410.029 745.714 424C741.846 428.386 734.354 433.217 732.697 439C730.539 446.528 745.172 474.462 754.001 471.253C760.383 468.934 765.384 461.668 770.004 457C781.545 445.339 799.038 432.018 806 417L779 442L804 411C797.787 410.734 791.688 408.909 789 416L781 419L777.877 397.011L784 383z"/>
<path style="fill:#c88a63; stroke:none;" d="M207 385C202.328 391.415 201.022 399.147 201 407C208.911 402.893 212.356 392.84 207 385z"/>
<path style="fill:#d9a17a; stroke:none;" d="M240 386L212 413L219 413C220.094 404.658 235.277 393.683 242 389L240 386z"/>
<path style="fill:#5c9bd3; stroke:none;" d="M266 386L266 387L368 387L337 386L266 386z"/>
<path style="fill:#abbbb5; stroke:none;" d="M582 386L582 387L642 387L623 386L582 386z"/>
<path style="fill:#b37856; stroke:none;" d="M218 412C233.049 410.812 242.989 405.518 243 389C234.433 391.399 222.004 404.149 218 412z"/>
<path style="fill:#bdbfbe; stroke:none;" d="M647 392L647 393L655 392L647 392z"/>
<path style="fill:#c59e63; stroke:none;" d="M648 396L651 400L651 396L648 396z"/>
<path style="fill:#448cca; stroke:none;" d="M489 413C486.381 404.638 485.395 403.531 495 406L489 397C480.085 401.158 476.872 411.128 489 413z"/>
<path style="fill:#70a2d0; stroke:none;" d="M489 398L497 407L489 398z"/>
<path style="fill:#ffff00; stroke:none;" d="M183 400L184 401L183 400z"/>
<path style="fill:#5f9dd5; stroke:none;" d="M267 400L267 401L338 401L316 400L267 400z"/>
<path style="fill:#72baed; stroke:none;" d="M265 401L265 406L322 406C324.967 406 338.299 407.753 339.079 403.83C339.942 399.484 324.491 401 322 401L265 401z"/>
<path style="fill:#fafafa; stroke:none;" d="M484 407C488.36 407.992 489.992 406.36 489 402L484 407z"/>
<path style="fill:#f3b3be; stroke:none;" d="M432 435L433 435C433 428.495 431.266 419.043 433.938 413.015C439.888 399.592 468.115 405 480 405C476.301 403.448 471.983 404 468 404C458.375 404 439.232 400.206 433.434 410.094C429.781 416.324 432 427.955 432 435z"/>
<path style="fill:#d3d3d3; stroke:none;" d="M490 404L486 409C489.48 409.057 491.91 407.482 490 404z"/>
<path style="fill:#e6ab49; stroke:none;" d="M648 404L649 409L651 409L652 404L648 404z"/>
<path style="fill:#e68193; stroke:none;" d="M442 405L442 406L479 406C469.202 401.889 452.649 405 442 405z"/>
<path style="fill:#c16374; stroke:none;" d="M433 435L435 435C435 428.414 433.249 418.861 437.009 413.094C443.443 403.228 469.546 408 480 408C476.73 405.523 473.001 406 469 406C460.258 405.999 440.827 402.281 435.032 410.189C430.706 416.093 433 427.998 433 435z"/>
<path style="fill:#366fa0; stroke:none;" d="M486 414C491.033 414.075 493.964 410.363 496 406L486 414z"/>
<path style="fill:#d0cdc9; stroke:none;" d="M497 406C488.208 414.897 490 424.222 490 436L491 436L491.318 417L497 406z"/>
<path style="fill:#396fa1; stroke:none;" d="M266 407L266 408L339 408L316 407L266 407z"/>
<path style="fill:#c9b9b8; stroke:none;" d="M441 408L441 409L481 409C470.488 404.589 452.434 408 441 408z"/>
<path style="fill:#ecc29c; stroke:none;" d="M169 426L168 421C156.888 429.943 149.648 452.102 152 466L151 470L167 463C171.77 467.127 183.382 451.371 186.975 448.339C204.701 433.379 226.551 414.016 251 414L251 412C223.097 407.276 196.801 425.92 169 426z"/>
<path style="fill:#c8c6c2; stroke:none;" d="M437 413L440 410L437 413z"/>
<path style="fill:#a2814f; stroke:none;" d="M813 410C803.997 419.407 790.077 431.009 785 443C794.294 441.111 803.413 428.871 809.421 422.015C812.876 418.071 817.653 414.697 813 410z"/>
<path style="fill:#e3a949; stroke:none;" d="M649 412L649 418L651 418L651 412L649 412z"/>
<path style="fill:#e3b490; stroke:none;" d="M167 463L151 470L152 466L152 454L151 454L144 486C162.191 492.533 170.493 481.89 187 477.456C192.012 476.11 199.999 473.403 204.975 473.272C210.405 473.13 215.223 475.523 221 474.7C236.659 472.468 256.367 463.402 269 454C255.587 448.34 244.438 466.35 232.09 460.508C210.332 450.214 214.456 431.248 234 420.55C241.354 416.525 248.906 417 257 417C252.854 410.774 240.955 414.099 235 416.218C216.495 422.802 199.914 436.534 185.086 449.117C181.605 452.07 171.896 466.404 167 463z"/>
<path style="fill:#dcd9d5; stroke:none;" d="M436 413L436 436L437 436L436 413z"/>
<path style="fill:#b9965e; stroke:none;" d="M816 413C803.109 435.918 774.958 443.583 762 466L763 467C778.376 456.289 791.357 442.047 804.906 429.181C808.598 425.674 817.466 418.423 816 413z"/>
<path style="fill:#f2a9b7; stroke:none;" d="M486 414L486 436L487 436L486 414z"/>
<path style="fill:#cd687a; stroke:none;" d="M489 414L489 436L490 436L489 414z"/>
<path style="fill:#b2868c; stroke:none;" d="M435 415L435 435L436 435L435 415z"/>
<path style="fill:#e9788c; stroke:none;" d="M487 415C487 422.125 484.568 434.781 488.894 440.811C494.5 448.627 513.471 445 522 445L519 452C530.029 448.904 530.029 438.096 519 435L522 442C511.234 442 493.786 445.69 488.879 432.91C486.679 427.181 489.358 420.619 487 415z"/>
<path style="fill:#cd9a75; stroke:none;" d="M232 461C230.432 453.389 223.841 445.847 225.229 438C225.973 433.794 229.15 430.939 231.989 428.001C244.605 414.945 254.92 418.814 269 428C259.224 399.482 201.242 428.205 219.189 451.815C221.956 455.455 228.04 458.689 232 461z"/>
<path style="fill:#d9d7d3; stroke:none;" d="M677 416L677 468L678 468L678 433L677 416z"/>
<path style="fill:#7c909e; stroke:none;" d="M678 417L678 455C678 460.85 678.959 467.421 673.891 471.566C668.891 475.656 660.037 474 654 474L604 474L408 474L408 475L599 475L652 475C658.223 475 668.353 476.913 673.981 473.972C679.138 471.277 678.998 466.046 679 461C679.006 448.537 682.805 428.451 678 417z"/>
<path style="fill:#75abd7; stroke:none;" d="M679 417L679 456C679 461.932 680.071 468.472 674.941 472.682C670.177 476.592 661.77 475 656 475L611 475L469 475C450.698 475 422.903 480.162 406 473C410.3 480.799 431.92 477 440 477C469.707 477 499.37 478.002 529 478C537.775 477.999 554.631 474.42 559 484L558 484L557 482L556 485L553 483L552 483C546.494 487.853 538.898 487 532 487C520.669 487.001 509.379 488 498 488L498 489C545.059 489 591.96 490 639 490L673 490C677.778 489.998 683.88 490.47 687.44 486.581C692.503 481.049 692 471.891 692 465L692 419L679 417z"/>
<path style="fill:#d6ac69; stroke:none;" d="M814 418L782.985 449.792L764 468C772.119 467.759 776.539 462.459 782 457C793.506 445.499 808.538 432.617 816 418L814 418z"/>
<path style="fill:#b07b5a; stroke:none;" d="M232 461L233 461C232.82 452.292 231.071 440.059 241.015 435.333C247.84 432.089 274.601 446.09 270 427C263.669 425.408 258.852 419.829 252 419.108C239.174 417.758 224.243 427.918 225.045 442C225.408 448.375 230.056 454.826 232 461z"/>
<path style="fill:#91a3b0; stroke:none;" d="M551.333 420.667L551.667 421.333L551.333 420.667z"/>
<path style="fill:#dbd9d4; stroke:none;" d="M552 420L542 429L542 430C546.73 429.27 553.093 425.447 552 420z"/>
<path style="fill:#5685b0; stroke:none;" d="M692 420L689 485C694.211 480.502 693.01 475.317 693 469C692.979 455.207 697.313 432.661 692 420z"/>
<path style="fill:#3f678b; stroke:none;" d="M693 420L693 478L694 478L694 439L693 420z"/>
<path style="fill:#7a8790; stroke:none;" d="M694 420L694 476L695 476L695 438L694 420z"/>
<path style="fill:#b7b6b3; stroke:none;" d="M695 420L695 466C695 479.132 696.24 488.993 684.116 496.906C676.195 502.076 660.198 499 651 499C623.31 499 595.616 499.249 568 498.039C494.648 494.827 420.431 498 347 498L277 498C267.298 498 254.379 500.25 245.043 497.566C241.441 496.531 239.609 493.113 236 492C243.075 503.186 254.296 501 266 501L341 501L583 501L653 501C662.976 501 676.561 503.378 685.911 499.576C705.071 491.786 698 457.662 698 441C698 435.347 695.759 424.398 701 421L695 420z"/>
<path style="fill:#efb14c; stroke:none;" d="M649 421L648 426L651 421L649 421z"/>
<path style="fill:#c5c3c0; stroke:none;" d="M698 421L698 472C698 481.257 698.366 490.567 690.267 496.603C680.942 503.552 666.968 501 656 501L575 501L363 501L286 501C273.87 501 259.932 502.914 248 500.736C242.297 499.695 239.315 494.554 234 493L242 503L224 499C231.203 507.374 243.388 503.118 253 503.004C278.992 502.695 305.006 503 331 503L594 503L664 503C673.523 503 686.522 505.254 694.995 499.995C702.42 495.386 702 485.752 702 478C702.001 458.982 701 440.054 701 421L698 421z"/>
<path style="fill:#dedcd9; stroke:none;" d="M701 421C701 444.909 704.836 470.556 700 494C706.641 489.65 706 481.03 706 474L706 421L701 421z"/>
<path style="fill:#b8b5b1; stroke:none;" d="M706 421L706 468C706 479.87 706.339 490.512 695.996 498.606C686.89 505.731 671.828 503 661 503L576 503L246 503L246 504L551 504L647 504C661.342 504 679.027 506.816 693 503.606C715.053 498.539 708 459.269 708 443C708 436.577 709.996 426.274 706 421z"/>
<path style="fill:#cda86e; stroke:none;" d="M651 422L649 427L651 422z"/>
<path style="fill:#ccc3cf; stroke:none;" d="M709 422L709 423L714 423L709 422z"/>
<path style="fill:#a392a7; stroke:none;" d="M708 423L707 487L708 487L709 442L708 423z"/>
<path style="fill:#9fa185; stroke:none;" d="M273 430L273 431L361 431L334 430L273 430z"/>
<path style="fill:#c5964a; stroke:none;" d="M648 430L648 435L652 430L648 430z"/>
<path style="fill:#edba54; stroke:none;" d="M262 452C267.106 453.228 270.685 455.155 273 460L314 460L342 460C349.482 460 360.344 461.976 366.941 457.772C375.197 452.511 372.561 435.489 363.871 431.742C357.506 428.998 346.858 431 340 431L293 431C286.887 431 277.909 429.346 272.17 431.6C262.441 435.419 260.852 442.917 262 452z"/>
<path style="fill:#c28427; stroke:none;" d="M367 433L371 453L372 453C373.842 445.264 373.772 438.047 367 433z"/>
<path style="fill:#81bce7; stroke:none;" d="M233 462C251.352 460.501 243.783 447.514 247 434C231.548 434.718 233 450.384 233 462z"/>
<path style="fill:#448aca; stroke:none;" d="M246 435L246 459L262 452L262 438L246 435z"/>
<path style="fill:#9ba3c1; stroke:none;" d="M431 435L431 436L436 436L431 435z"/>
<path style="fill:#428aca; stroke:none;" d="M540.094 435.873C530.911 439.631 536.64 453.957 545.945 450.254C555.132 446.597 548.95 432.25 540.094 435.873z"/>
<path style="fill:#448cca; stroke:none;" d="M429.228 437.028C421.96 441.468 428.358 451.999 435.942 447.968C444.922 443.196 437.355 432.063 429.228 437.028z"/>
<path style="fill:#dea547; stroke:none;" d="M644 442L649 438L644 442z"/>
<path style="fill:#97abbc; stroke:none;" d="M441 440L441 445L442 445L441 440z"/>
<path style="fill:#f4c7cd; stroke:none;" d="M521 440L496 441L496 442L521 440z"/>
<path style="fill:#7b6130; stroke:none;" d="M373 441L373 448L374 448L373 441z"/>
<path style="fill:#356d9e; stroke:none;" d="M440 441C438.226 447.297 434.149 449.069 428 448C433.58 453.697 443.296 449.096 440 441z"/>
<path style="fill:#efb14c; stroke:none;" d="M555 444L559 441L555 444z"/>
<path style="fill:#ca9643; stroke:none;" d="M563 441L563 445L568 445L563 441z"/>
<path style="fill:#dfa647; stroke:none;" d="M571 441L571 445L576 444L576 442L571 441z"/>
<path style="fill:#f1b24d; stroke:none;" d="M579 442L579 444L584 445L584 441L579 442z"/>
<path style="fill:#cc9844; stroke:none;" d="M587 442L587 444L593 445C591.864 441.578 590.43 441.216 587 442z"/>
<path style="fill:#dfa647; stroke:none;" d="M595 442L595 444L601 444L601 442L595 442z"/>
<path style="fill:#ca9743; stroke:none;" d="M604 441L604 445L609 445L604 441z"/>
<path style="fill:#c59548; stroke:none;" d="M612 445L617 445L617 441L612 445z"/>
<path style="fill:#dea547; stroke:none;" d="M620 442L620 444L625 445L625 441L620 442z"/>
<path style="fill:#cc9844; stroke:none;" d="M628 442L628 444L634 444L634 442L628 442z"/>
<path style="fill:#ca9949; stroke:none;" d="M637 441L637 445L642 444L642 442L637 441z"/>
<path style="fill:#c9c5c2; stroke:none;" d="M752 442C737.728 438.768 746.157 459.445 752 442z"/>
<path style="fill:#ee8297; stroke:none;" d="M293 448L341 448L341 442L305 442C299.157 442 293.557 440.85 293 448z"/>
<path style="fill:#c59547; stroke:none;" d="M558 442L556 444L556 445L560 442L558 442z"/>
<path style="fill:#cab99e; stroke:none;" d="M625 442L625 445L626 445L625 442z"/>
<path style="fill:#c8596c; stroke:none;" d="M341 443L341 448L342 448L341 443z"/>
<path style="fill:#d8d6d2; stroke:none;" d="M529 443L520 452L520 453C524.354 451.778 530.018 448.075 529 443z"/>
<path style="fill:#b6b4b1; stroke:none;" d="M752 443L744 451C751.348 460.644 760.203 450.24 752 443z"/>
<path style="fill:#bd9c9f; stroke:none;" d="M495 445L495 446L522 446L495 445z"/>
<path style="fill:#87a2ba; stroke:none;" d="M232 447L232 455L233 455L232 447z"/>
<path style="fill:#b55c5a; stroke:none;" d="M294 448L294 449L341 449C328.823 443.891 307.265 448 294 448z"/>
<path style="fill:#c4c2bf; stroke:none;" d="M431 451L431 452L440 449L431 451z"/>
<path style="fill:#d5a681; stroke:none;" d="M147 487L147 488C171.641 502.396 202.436 487.244 227 477.085C231.886 475.064 237.145 475.499 242 472.89C251.349 467.867 261.655 459.43 272 457C265.501 451.195 245.477 466.44 238 469.25C220.167 475.951 203.966 472.631 186 477.456C170.811 481.535 163.753 490.438 147 487z"/>
<path style="fill:#bb8d6a; stroke:none;" d="M162 495C169.452 503.693 192.745 515.615 204.625 511.308C207.746 510.176 210.13 506.275 213.004 504.468C220.58 499.701 229.01 496.232 237 492.247C251.588 484.971 270.588 474.812 273 457C261.099 457.797 249.774 469.173 239 473.826C215.447 483.999 187.206 491.817 162 495z"/>
<path style="fill:#6c7e7f; stroke:none;" d="M272 462L303 461L360 461C354.049 458.503 345.42 460 339 460L293 460C287.627 460 275.702 457.764 272 462z"/>
<path style="fill:#c8c5c1; stroke:none;" d="M407 473L407 474L672 474L648 473L594 473L407 473z"/>
<path style="fill:#a4a3a1; stroke:none;" d="M694 476C689.622 490.74 676.669 490 664 490L583 490L344 490L272 490C261.429 490 248.06 487.766 238 491C243.248 500.57 253.394 498 263 498L328 498C420.667 498 513.415 499 606 499C629.472 499 657.866 503.415 680.826 498.736C690.507 496.763 697.925 485.356 694 476z"/>
<path style="fill:#f6c96d; stroke:none;" d="M139 528L137 525L151 529C145.753 519.746 148.813 496.925 163 498C160.11 493.574 143.487 482.395 138.174 483.673C133.018 484.913 128.339 493.055 125.375 497C122.09 501.373 115.425 507.946 117.608 513.985C119.878 520.265 132.988 526.097 139 528z"/>
<path style="fill:#e9e7e4; stroke:none;" d="M224 498C229.575 502.334 235.154 502.999 242 503C237.387 494.352 232.393 493.531 224 498z"/>
<path style="fill:#eab053; stroke:none;" d="M151 529L137 525C142.331 533.749 157.311 541.209 167 544L167 543L157 534L165 537L164 531L167 529L168 529L170 531L173 521C168.189 513.302 178.851 508.867 185 510C180.174 504.776 166.664 495.779 159.129 497.525C147.78 500.155 145.291 521.427 151 529z"/>
<path style="fill:#ffffff; stroke:none;" d="M216 502L217 503L216 502M214 503L215 504L214 503z"/>
<path style="fill:#a5a39f; stroke:none;" d="M232 504L232 505L542 505L643 505L692 505C681.496 500.592 663.42 504 652 504L558 504L232 504z"/>
<path style="fill:#8c8b87; stroke:none;" d="M234 505L234 506L512 506L512 562L513 562L513 506L687 506C676.496 501.592 658.42 505 647 505L555 505L234 505z"/>
<path style="fill:#ffffff; stroke:none;" d="M209 506L210 507L209 506z"/>
<path style="fill:#20201d; stroke:none;" d="M239 506L239 507L338 507.366L365 507.513L379 509L380 509L390 507C378.306 502.093 357.73 506 345 506L239 506z"/>
<path style="fill:#bcbab6; stroke:none;" d="M412 506L412 547C433.185 541.956 458.367 547 480 547C487.769 547 500.715 544.514 507.852 547.742C511.996 549.617 511 555.278 511 559L512 559L512 506L412 506z"/>
<path style="fill:#808080; stroke:none;" d="M237 508L238 509L237 508z"/>
<path style="fill:#c49345; stroke:none;" d="M173 521C169.167 523.5 169.166 525.998 171 530L174 529L179 533C179.198 536.078 177.903 540.06 179.062 542.91C182.471 551.288 198.933 555.12 206 560C208.43 552.317 212.785 539.977 202 538C199.38 543.548 191.802 546.563 190.567 537.999C189.974 533.885 193.99 531.586 194.642 527.87C195.59 522.465 190.841 519.719 194 514C187.636 509.811 165.595 506.831 173 521z"/>
<path style="fill:#926a4f; stroke:none;" d="M189 510C192.677 514.106 201.206 517.256 205 512L189 510z"/>
<path style="fill:#ffffff; stroke:none;" d="M250.667 512.333L251.333 512.667L250.667 512.333z"/>
<path style="fill:#808080; stroke:none;" d="M272 512L273 513L272 512M339 512L340 513L339 512M345 512L346 513L345 512M350 512L351 513L350 512M355 512L356 513L355 512M372 512L373 513L372 512M383 512L384 513L383 512z"/>
<path style="fill:#724f38; stroke:none;" d="M194 513L194 514L212 525L202 518L203 515L194 513z"/>
<path style="fill:#ffffff; stroke:none;" d="M311 513L312 514L311 513z"/>
<path style="fill:#a67a37; stroke:none;" d="M195 529C200.527 529.861 207.363 538.749 209 544C213.805 534.001 212.775 526.342 204 520.23C201.775 518.68 195.924 512.817 193.029 515.847C190.031 518.984 194.53 525.54 195 529z"/>
<path style="fill:#ba965c; stroke:none;" d="M123 521C140.646 535.445 163.186 553.117 186 556C174.75 544.594 154.804 537.882 141 529.6C135.736 526.442 129.265 520.62 123 521z"/>
<path style="fill:#e1b972; stroke:none;" d="M123 522C123.125 532.523 133.823 536.731 142 541.421C153.486 548.01 168.683 560 182 561.782C186.017 562.32 188.74 559.521 192.424 559.539C197.044 559.561 200.06 562.071 205 561L205 558L167 544L167 545L186 555C160.528 557.8 145.668 527.616 123 522z"/>
<path style="fill:#d2a864; stroke:none;" d="M167 529L164 531L165 537L157 534C158.313 539.1 162.654 540.995 167 543.435C176.888 548.987 189.789 555.07 201 557L201 556C194.855 553.445 182.57 549.342 179.586 542.91C178.311 540.163 179.491 536.058 179 533L174 529L167 529z"/>
<path style="fill:#9b9b9b; stroke:none;" d="M195.093 529.762C187.472 532.607 190.15 547.414 197.946 543.914C204.766 540.851 203.85 526.493 195.093 529.762z"/>
<path style="fill:#dbd8d5; stroke:none;" d="M412 550L475.09 561.856L513 566C512.674 562.265 512.281 550.463 509.397 548.179C505.567 545.146 495.648 547 491 547C474.951 547 459.004 546 443 546C436.107 546 414.495 542.483 412 550z"/>
<path style="fill:#ebeae6; stroke:none;" d="M412 550L412 557L413 557L413 553C418.241 555.811 424.33 555.529 429.961 557.326C450.511 563.884 473.183 567.55 495 568L495 569L414 569L414 570L480 570C490.688 570 503.145 571.824 513 567C504.876 559.928 487.241 562.787 477.015 561.942C455.57 560.171 433.899 550.94 412 550z"/>
<path style="fill:#fcfaf7; stroke:none;" d="M413 553L411 569L495 569L495 568C468.458 566.86 437.461 563.381 413 553z"/>
<path style="fill:#b8b6b2; stroke:none;" d="M513 564L510 568L510 569C512.85 568.063 513.983 566.988 513 564z"/>
<path style="fill:#94928e; stroke:none;" d="M410 566L410 571L514 572L515 568C490.114 572.623 463.241 570 438 570C429.306 570 416.655 572.592 410 566z"/>
<path style="fill:#71557f; stroke:none;" d="M411 571L411 572L415 573L415 572L411 571z"/>
<path style="fill:#595856; stroke:none;" d="M415 572L415 573L479 573L513 572L484 572L415 572z"/>
<path style="fill:#6b527b; stroke:none;" d="M420 573L420 574L503 574L477 573L420 573z"/>
<path style="fill:#d5d0cb; stroke:none;" d="M614 616L615 616C619.559 602.639 627.357 596.397 640 604L634 598L634 597L673 596C666.345 592.013 655.404 593.841 648 594.714C632.51 596.542 615.11 594.613 614 616z"/>
<path style="fill:#f8f3ea; stroke:none;" d="M634 597C639.025 602.902 643.673 609.011 647.191 616C649.778 621.141 650.929 627.892 656.044 631.258C661.547 634.879 688.24 633.9 691.972 627.772C697.201 619.186 683.62 602.265 676.996 598.032C666.567 591.369 645.793 596.902 634 597z"/>
<path style="fill:#7a636e; stroke:none;" d="M625 600L625 601C632.707 600.207 635.97 603.806 642 608C638.657 600.896 632.477 598.241 625 600z"/>
<path style="fill:#d4aabd; stroke:none;" d="M656 632C651.224 624.655 647.808 615.157 642.44 608.425C639.585 604.846 634.792 600.62 630 600.387C622.977 600.046 613.183 609.342 615.697 616.856C616.854 620.316 622.033 621.051 625 622.204C634.569 625.922 645.69 631.528 656 632z"/>
<path style="fill:#fdfdfd; stroke:none;" d="M318 624L590 624C588.404 618.459 584.93 607.132 579.787 604.024C572.127 599.395 561.206 603.284 553 602.675C522.9 600.442 492.153 602.378 462 603L463 616L445 616L445 614L461 614L461 611L445 612C449.327 607.946 455.41 609 461 609L461 606L447 606L447 605C451.745 605 458.147 606.4 461 602L372 603C371.636 618.785 365.335 623 351 623L351 619C356.074 619 363.942 620.717 367 616L344 618C342.249 625.094 332.834 623 327 623L327 619C332.385 619 340.541 620.796 344 616L329 616L329 614L368 614L368 611L354 611L354 609L370 609L370 606L356 606L356 605L371 605L371 602L350 603L348 611L331 611L331 609L347 609L347 606L333 606L333 605L349 604L349 602C332.355 597.08 319.488 607.068 318 624z"/>
<path style="fill:#e4e4e4; stroke:none;" d="M348 601L349 604L333 605L333 606L347 606L347 609L331 609L331 611L348 611L350 603L356 603L356 602L348 601z"/>
<path style="fill:#808080; stroke:none;" d="M356 601L357 602L356 601z"/>
<path style="fill:#e1e1e1; stroke:none;" d="M371 602C368.041 606.564 360.913 605 356 605L356 606L370 606L370 609L354 609L354 611L368 611L368 614L329 614L329 616L344 616L344 621L345 621L344 618L367 616L366 619C370.342 616.255 373.547 606.573 371 602z"/>
<path style="fill:#e0e0e0; stroke:none;" d="M461 603L447 605L447 606L461 606L461 609C455.91 609 448.249 607.402 445 612L461 611L461 614L445 614L445 616L463 616L461 603M423 607L438 606L438 609C432.91 609 425.249 607.402 422 612L438 611L438 614L422 615L422 616L439 616L439 604L423 607z"/>
<path style="fill:#dadada; stroke:none;" d="M513 607L530 607L529 604L513 607z"/>
<path style="fill:#dedede; stroke:none;" d="M468 612L484 611L484 614L468 614L468 616L486 616C485.334 607.843 472.713 605.329 468 612z"/>
<path style="fill:#dbdbdb; stroke:none;" d="M514 612C519.609 610.665 526.695 609.604 531 614C525.911 614 518.249 612.402 515 617C520.216 615.758 527.532 614.615 532 618C535.192 607.587 518.538 605.576 514 612z"/>
<path style="fill:#a3a3a3; stroke:none;" d="M370.333 610.667L370.667 611.333L370.333 610.667z"/>
<path style="fill:#b47891; stroke:none;" d="M644 611L648 621L649 621L644 611z"/>
<path style="fill:#e1e1e1; stroke:none;" d="M376 614L376 616L390 616L391 620L393 614L376 614M399 614L399 616L416 616L416 614L399 614z"/>
<path style="fill:#d6d6d6; stroke:none;" d="M540 614L540 616L560.039 617.817L580 617C577.518 613.171 573.206 614 569 614L540 614z"/>
<path style="fill:#a57dbd; stroke:none;" d="M588 618L590 631C564.707 635.696 535.724 632 510 632L354 632L354 633L514 633C540.039 633 569.398 636.753 595 632C593.944 626.947 593.198 620.082 588 618z"/>
<path style="fill:#ac82c4; stroke:none;" d="M612 618C612.891 623.82 617.54 625.673 622.576 627.871C633.427 632.608 649.18 635 661 635L661 634L627 624.662L616 618L612 618z"/>
<path style="fill:#cacaca; stroke:none;" d="M327 619L327 623L344 622L344 620L327 619z"/>
<path style="fill:#c1c1c1; stroke:none;" d="M351 619L351 623C356.389 623 365.95 625.177 368 619L351 619z"/>
<path style="fill:#cacaca; stroke:none;" d="M374 619L374 623L392 622L392 620L374 619z"/>
<path style="fill:#c1c1c1; stroke:none;" d="M397 622L434 623L510 623L510 619L426 619C418.871 619 401.46 615.816 397 622z"/>
<path style="fill:#c8c8c8; stroke:none;" d="M516 619C518.097 625.317 528.487 623 534 623L534 619L516 619z"/>
<path style="fill:#c6c6c6; stroke:none;" d="M542 619C543.999 625.023 552.738 623 558 623C555.604 617.038 547.442 619 542 619M564 622L582 623C579.637 617.122 567.484 617.17 564 622z"/>
<path style="fill:#725581; stroke:none;" d="M615 619L615 620C630.943 628.491 649.061 634 667 634L667 633L615 619z"/>
<path style="fill:#ededed; stroke:none;" d="M317 622C318.085 627.061 327.712 625 332 625L381 625L587 625L587 624L393 624L341 624L317 622z"/>
<path style="fill:#8e8e8e; stroke:none;" d="M316 624L316 629L317 629L316 624z"/>
<path style="fill:#b0b0b0; stroke:none;" d="M318 626C319.554 631.314 326.439 630 331 630L369 630L533 630L576 630C582.177 630 589.616 631.948 590 624C557.777 628.737 523.65 626 491 626L318 626z"/>
<path style="fill:#c4c4c4; stroke:none;" d="M317 625L317 629L318 629L318 626L584 626L559 625L505 625L317 625z"/>
<path style="fill:#8d8d8d; stroke:none;" d="M317 629L317 630C345.385 635.27 378.124 631 407 631L587 631C580.322 628.198 570.216 630 563 630L509 630C445.448 630 380.312 633.997 317 629z"/>
<path style="fill:#87669a; stroke:none;" d="M683 631L683 632L693 629L683 631z"/>
<path style="fill:#504457; stroke:none;" d="M355 631L355 632L513 632C537.101 632 566.567 636.579 590 631L568 631L519 631L355 631z"/>
<path style="fill:#252525; stroke:none;" d="M322 631L322 632L355 632L322 631z"/>
<path style="fill:#8a699d; stroke:none;" d="M672 632L672 633L683 633L672 632z"/>
</svg>
